<svg width="284" height="157" viewBox="0 0 284 157" fill="none" xmlns="http://www.w3.org/2000/svg">
<g clip-path="url(#clip0_4_799)">
<path d="M265.584 3.42483C265.945 3.06433 266.487 2.70382 266.848 2.52357C267.751 1.80256 268.834 1.44206 269.917 1.80256C270.098 1.80256 270.278 1.80256 270.278 1.98281C271.001 1.98281 271.542 2.16307 272.084 2.52357C272.626 2.70382 273.348 3.06433 273.889 3.60509C276.598 4.14584 278.945 6.12862 279.667 9.01266C280.389 10.0942 280.389 11.3559 280.028 12.798C279.667 14.24 277.5 16.403 278.042 17.845C278.584 20.1883 275.875 21.4501 274.431 20.1883C273.167 19.8278 271.723 18.7463 270.82 18.2055C268.473 16.403 266.848 13.6992 265.584 10.9954C264.501 8.47191 263.779 5.58787 265.584 3.42483Z" fill="#0E61AA"/>
<path d="M213.948 130.683C212.503 129.962 212.865 128.16 213.948 127.439C217.739 124.735 221.892 122.932 226.225 121.851C227.489 121.49 228.392 122.572 228.392 123.653C229.294 123.473 230.197 124.194 229.836 125.276C229.836 125.456 229.655 125.456 229.655 125.636C228.753 128.34 227.128 130.503 224.781 132.125L224.6 132.305C224.239 132.846 223.697 133.387 222.975 133.387C221.711 133.567 220.448 133.747 219.184 133.747C218.823 135.009 217.559 135.73 216.295 135.009C215.573 134.649 215.031 134.288 214.489 133.928C213.406 132.846 213.406 131.584 213.948 130.683Z" fill="#0E61AA"/>
<path d="M46.7616 40.5568C46.9422 40.3765 46.9422 40.3765 47.1227 40.1963C46.7616 40.016 46.5811 39.8358 46.4005 39.4753C44.7756 36.7715 44.7756 34.0677 46.22 31.3639C46.4005 31.0034 46.5811 30.8231 46.9422 30.6429C47.8449 29.0206 49.2893 27.7589 50.9142 26.4971C50.3725 25.4156 50.7337 24.1538 52.178 23.9736C57.2333 23.0723 62.2886 22.5315 67.344 22.7118C68.9689 22.7118 70.2327 25.0551 68.7883 26.1366C65.5385 28.8404 62.1081 31.7244 58.8583 34.4282C57.9555 35.1492 54.164 37.6727 51.6364 40.016C51.9975 40.3765 52.178 40.737 51.9975 41.0975C51.2753 42.9001 50.192 43.9816 48.3865 44.7026C47.6644 45.0631 46.9422 44.3421 46.7616 43.8013C46.5811 43.0803 46.5811 42.3593 46.7616 41.6383C46.4005 41.4581 46.4005 40.9173 46.7616 40.5568Z" fill="#0E61AA"/>
<path d="M5.59699 111.216C9.02737 106.169 15.527 104.366 21.124 103.285C22.0267 103.104 22.5684 103.465 23.11 104.006C25.8182 104.366 28.5264 105.087 31.0541 106.349C31.5957 106.529 31.7763 107.43 31.4152 107.971C31.4152 108.152 31.4152 108.152 31.4152 108.332C27.6237 113.199 23.4711 117.525 18.9574 121.67C19.138 122.211 18.9574 122.572 18.2353 122.932C16.7909 123.473 15.7076 124.374 14.6243 125.456C13.7216 126.357 12.2772 125.456 12.4578 124.554C12.2772 124.554 12.0967 124.374 11.9161 124.194C8.12464 120.769 1.98605 116.623 5.59699 111.216Z" fill="#0E61AA"/>
<path d="M0.180554 114.1C0.722194 113.199 1.26382 112.297 1.80546 111.396L1.08329 110.855C0.902741 110.675 1.08327 110.315 1.26382 110.495C1.62491 110.675 1.80546 110.855 2.16655 110.855C12.8188 95.3536 29.6097 104.186 44.9561 109.053C52.3586 111.396 59.2193 113.559 66.8023 111.036C73.6631 108.873 77.8156 104.727 83.232 100.22C87.2041 96.9759 91.5372 93.5511 96.2314 91.0276C97.8563 89.4053 99.8423 87.9633 101.828 86.5213C89.9123 78.2296 77.9962 69.7578 66.2607 61.2859C58.3166 55.3376 46.0394 49.209 42.4285 39.2951C40.0814 32.6257 43.3312 26.4972 49.4698 23.0724C57.9555 18.3858 68.2467 21.8106 76.7324 24.5144C89.9123 28.6602 103.273 32.2652 116.272 36.9518C128.188 41.2779 141.007 45.2434 152.562 50.2905C155.631 48.3077 158.701 46.3249 161.589 44.7027C162.131 44.3422 162.673 44.3422 163.214 44.5224C163.936 44.3422 164.659 44.3422 165.381 44.3422C165.561 44.1619 165.561 43.9817 165.742 43.8014C179.102 32.806 193.366 23.0724 208.712 14.961C220.086 9.37315 232.544 1.80254 245.544 1.62229C248.252 1.62229 251.14 1.9828 253.849 1.9828C259.446 2.16305 264.32 0.540775 269.737 1.7065e-05C272.806 1.7065e-05 276.056 -0.360488 278.945 1.08153C281.472 2.3433 282.917 4.14583 283.458 6.30886C283.819 6.48911 284 6.84962 284 7.39037C284 7.75088 283.819 8.11138 283.639 8.47189C283.639 9.37315 283.278 10.0942 282.917 10.9954C276.598 32.9862 257.46 48.8485 239.766 62.1872C229.114 70.1183 218.1 77.5086 206.907 84.5385C207.448 85.4397 207.99 86.5213 208.531 87.4225C210.517 89.9461 212.142 93.0104 213.767 95.5339C217.378 91.5683 221.531 88.1435 224.961 85.62C225.322 83.8175 226.225 82.3755 227.669 81.1137C230.378 78.9507 233.086 78.9507 235.613 80.2124C245.544 79.8519 263.057 102.564 251.321 109.053C250.599 109.413 249.877 109.774 249.154 109.954C243.919 115.181 235.613 119.147 229.836 121.851H229.655C236.516 128.16 234.53 138.795 223.336 138.254C215.934 137.893 208.893 131.765 202.754 128.34C192.102 122.211 181.088 116.443 169.894 111.396H169.714C169.714 111.396 169.533 111.396 169.533 111.216C169.353 111.396 168.992 111.396 168.811 111.216C168.45 111.036 168.27 110.855 167.908 110.675C167.006 110.134 166.103 109.954 165.2 109.413C163.756 110.315 162.131 111.036 160.687 111.937C134.327 126.898 107.064 140.958 77.6351 148.889C71.1354 150.691 64.4552 152.133 57.7749 153.034C52.9002 153.755 45.8589 155.919 40.8036 154.296C38.0954 153.395 36.651 151.773 36.2899 149.79C31.9568 152.494 27.2625 155.198 22.9294 156.64C15.8881 158.803 13.7215 153.755 17.513 147.627C20.0407 143.661 24.3738 140.417 28.7069 137.533C25.096 135.009 21.4851 132.305 18.0547 129.421C17.3325 129.962 16.7909 130.503 16.0687 131.044C15.8881 131.224 15.527 130.863 15.7076 130.683C16.2492 130.142 16.7908 129.602 17.513 129.061C11.9161 124.735 6.49968 120.229 0.90273 115.902C-3.61442e-06 115.362 -0.180539 114.641 0.180554 114.1ZM77.0935 67.5947C85.9402 73.7233 94.787 79.8519 104.175 85.0792C107.245 86.7015 110.134 88.1435 113.022 89.2251C115.189 87.6028 119.702 84.899 120.244 83.6372C122.411 79.4914 117.716 74.4443 115.008 72.1011C109.231 67.054 101.828 63.2687 95.1481 59.4834C94.9676 59.3031 94.6065 59.3031 94.4259 59.1229C94.4259 59.1229 94.4259 59.1229 94.4259 59.3031C90.0928 62.9082 85.7597 66.6935 81.246 70.1183C80.8849 70.2985 80.7044 69.938 80.8849 69.5775C85.2181 65.9725 89.7317 62.5477 94.2454 59.1229C94.2454 59.1229 94.2454 59.1229 94.4259 59.1229C87.2041 54.9771 53.0807 35.1493 50.0114 46.5052C50.0114 46.5052 50.0115 46.6854 49.8309 46.6854C50.3725 47.2262 50.7336 47.9472 51.2753 48.488C58.4972 56.0586 68.7883 61.8267 77.0935 67.5947ZM105.078 35.1493C95.8703 31.5442 86.1208 28.4799 76.3713 25.9564C70.9549 24.5144 65.3579 22.8921 59.761 23.4329C47.3032 24.5144 42.2479 34.7888 48.5671 44.8829C51.6364 34.248 72.9409 47.9472 77.8156 50.1102C94.0649 57.8611 114.647 65.9725 124.216 81.8347C124.397 82.1952 124.397 82.5557 124.036 82.9162C120.786 85.2595 117.536 87.4225 114.106 89.5856C121.869 92.2893 129.813 92.6499 138.66 89.9461C142.993 88.6843 147.326 87.062 151.659 85.2595C147.687 85.8003 144.437 85.62 142.632 84.3582C136.854 80.2124 136.313 71.7406 138.66 65.612C140.646 60.3846 144.798 56.2388 149.493 52.814C147.507 51.9128 145.34 51.0115 143.354 50.1102C130.174 47.5867 116.814 39.6556 105.078 35.1493ZM168.45 47.9472C167.547 47.5867 166.464 47.9472 165.2 49.209C166.103 49.3892 167.186 49.93 167.908 50.8313C170.075 52.9943 178.922 61.2859 178.019 65.9725C178.561 65.4317 178.561 64.5304 178.38 63.6292C178.2 63.2687 178.019 62.9082 177.839 62.7279C177.477 61.6464 176.936 60.5649 176.394 59.4834C174.408 55.3376 171.519 52.093 168.45 48.488C168.631 48.1275 168.631 48.1275 168.45 47.9472ZM163.034 52.4535C162.853 51.7325 162.853 51.0115 163.034 50.4707C160.145 51.1918 159.423 53.1745 161.048 56.0586C161.409 57.3203 161.95 58.4019 162.492 59.4834C163.756 62.0069 165.381 64.1699 167.547 66.1527C170.256 68.8565 170.436 69.5775 173.505 68.1355C172.783 67.775 172.242 67.4145 171.519 66.6935C171.158 66.5132 170.978 66.333 170.797 66.1527C170.436 65.612 170.075 65.0712 169.714 64.5304C166.284 60.9254 163.575 56.0586 163.034 52.4535ZM172.422 72.4616C166.284 69.217 160.506 61.2859 159.242 54.4363C159.062 53.1745 158.881 51.9128 159.062 50.651C155.631 52.9943 150.937 56.7796 150.034 57.5006C144.437 62.0069 138.479 69.217 141.188 77.1481C144.257 86.1608 152.923 81.4742 159.062 79.3112C163.034 77.8691 168.631 75.8864 172.964 72.8221C172.783 72.6418 172.603 72.6418 172.422 72.4616ZM150.937 51.0115C151.118 51.1918 151.298 51.1918 151.479 51.372C151.659 51.1918 151.84 51.1918 152.02 51.0115C151.659 51.0115 151.298 51.0115 150.937 51.0115ZM250.418 96.9759C249.335 94.0919 245.905 88.8645 242.113 85.4397C243.919 87.6028 245.363 89.7658 246.266 91.3881C246.627 91.9288 246.988 92.4696 247.168 93.1906C250.418 98.2377 252.946 104.547 245.905 104.907C243.738 105.087 241.572 103.645 239.947 102.023C237.961 100.761 236.336 98.5982 234.891 96.7957C233.086 94.6326 229.475 90.4868 227.85 86.8818C227.489 87.2423 226.947 87.6028 226.586 88.1435C226.947 93.3709 231.461 98.9587 234.711 102.023C237.599 104.547 241.391 107.25 245.544 107.25C251.682 107.07 252.224 101.302 250.418 96.9759ZM236.336 115.001C239.224 113.379 242.294 111.757 245.363 109.774C236.877 108.152 226.586 97.6969 225.322 89.2251C222.975 91.2078 220.448 93.1906 218.281 95.3536C215.934 97.5167 213.587 99.6797 211.601 102.023C210.517 103.645 209.434 105.087 208.351 106.71C204.74 112.297 206.004 116.263 212.323 118.246C218.642 123.113 219.184 122.572 226.045 120.228C229.475 118.786 232.905 116.804 236.336 115.001ZM215.753 125.997C215.753 125.997 215.753 126.177 215.573 126.357V126.537C215.753 126.177 215.934 125.816 216.114 125.456C216.114 125.456 216.114 125.456 215.934 125.456C215.934 125.636 215.934 125.816 215.753 125.997ZM217.92 134.468C228.392 131.044 231.822 126.898 228.572 122.392C224.961 124.014 220.809 125.456 216.837 125.456C216.476 128.34 215.212 130.323 212.865 131.765C214.49 132.846 216.114 133.567 217.92 134.468ZM170.617 109.233C170.797 109.233 170.797 109.413 170.978 109.594C180.186 114.28 189.213 118.967 198.24 123.834C202.393 125.997 206.365 128.52 210.517 130.683C210.517 130.683 210.517 130.683 210.517 130.503C210.879 129.962 211.601 129.602 211.962 129.061C212.503 128.52 213.045 127.799 213.406 127.258C213.406 127.258 213.587 127.078 213.767 126.718C213.948 126.357 213.948 125.997 213.948 125.456C213.948 125.276 214.128 125.276 214.128 125.276C212.142 124.915 210.156 124.014 208.531 122.392C206.726 120.769 205.643 118.967 204.921 116.984C203.657 116.443 202.573 115.722 201.671 115.181C201.49 115.001 201.129 114.821 200.949 114.641C198.962 117.525 195.532 119.868 191.921 119.688C191.38 119.688 191.38 119.147 191.921 118.967C195.532 118.426 198.421 117.164 200.587 114.28C193.907 110.134 182.172 101.843 175.491 107.25C175.13 107.611 174.769 106.89 175.13 106.71C178.019 104.547 180.908 104.186 184.338 105.268C190.116 106.89 195.713 110.495 201.129 113.739C201.31 113.559 201.671 113.739 201.49 113.92C202.573 114.641 203.837 115.362 204.921 115.902C203.476 109.954 207.268 103.105 212.323 97.1562C212.142 97.1562 212.142 96.9759 212.142 96.7957C210.337 93.9116 207.99 90.8473 206.726 87.6028C206.184 86.8818 205.823 86.1608 205.282 85.2595C193.004 92.8301 180.547 100.04 168.089 107.25C168.811 108.152 169.714 108.692 170.617 109.233ZM45.4978 151.412C47.4838 151.232 49.4698 151.052 51.4558 150.691C54.164 150.331 56.6917 149.97 59.3999 149.61C66.4412 148.348 73.4825 146.726 80.3433 144.743C91.8983 141.498 103.273 137.172 114.106 132.305C137.396 122.031 159.423 109.053 181.449 96.2549C217.198 75.3456 263.057 51.7325 280.209 11.8967C278.042 4.68658 273.889 2.16305 267.751 4.68658C266.487 5.04709 265.223 5.40759 263.779 5.58785C262.695 5.7681 261.793 5.94835 260.89 5.94835C259.626 6.84962 258.362 7.75088 257.099 8.47189C254.39 9.91391 251.502 11.1757 248.793 12.4374C247.168 13.1585 245.544 12.798 244.821 11.1757C244.099 9.5534 244.46 7.75088 245.182 6.30886C237.599 7.02987 230.919 9.01265 223.156 12.6177C203.657 21.2698 185.783 32.4455 169.172 45.7842C171.158 47.0459 173.144 49.0287 174.769 51.1918C178.922 55.6981 182.533 61.8267 181.811 67.2342C181.449 70.1183 179.825 72.2813 177.658 73.0023C174.769 76.6074 168.089 80.3927 161.228 82.736C145.701 90.1263 130.535 98.2377 115.008 93.7314C115.008 94.4524 114.828 95.3536 114.286 96.0746C113.744 97.1562 112.842 98.0574 111.578 98.7784C110.314 99.3192 108.87 98.7784 107.967 98.0574C105.981 96.6154 106.161 94.2721 106.884 92.2893C107.064 91.7486 107.425 91.2078 107.967 90.8473C107.606 90.6671 107.245 90.3066 106.703 90.1263C103.453 92.4696 99.8423 94.0919 96.2314 96.2549C90.2734 99.86 85.3986 104.727 79.8017 108.692C70.7743 115.001 61.747 116.623 51.2753 113.92C45.4978 112.478 40.0814 110.315 34.3039 108.512C31.4151 107.611 27.8042 106.169 24.7349 105.628C19.499 104.727 8.1246 106.71 5.95804 112.658C16.9714 117.885 29.2486 123.113 37.7343 131.584C44.234 127.619 51.0947 124.194 58.3166 122.031C58.3166 121.851 58.4971 121.851 58.6777 121.671C65.1774 119.688 67.3439 125.456 64.4552 130.503C60.4832 137.533 49.6504 141.859 42.9701 145.464C42.0674 146.005 40.9841 146.545 39.9008 147.086C41.8868 148.708 43.6923 150.15 45.4978 151.412ZM24.9154 148.168C36.2899 142.76 46.7616 135.73 57.5944 129.061C57.775 129.061 57.7749 129.241 57.7749 129.241C47.1227 136.271 36.4704 144.022 24.7349 149.249C24.7349 149.429 24.7349 149.61 24.7349 149.79C25.6376 154.657 28.7069 150.511 31.7762 148.889C33.5817 147.807 35.3871 146.906 37.3732 145.824C37.5537 145.644 37.5537 145.464 37.7343 145.103C38.0954 144.563 38.8175 144.563 39.1786 144.743C40.0814 144.202 40.8036 143.842 41.7063 143.301C45.1367 141.318 48.5671 139.516 51.8169 137.352C52.9002 136.631 53.9835 135.91 55.0667 135.189C61.0248 132.846 62.4692 129.061 59.3999 123.653C54.164 126.898 42.7896 132.846 34.4844 138.614C35.3872 139.516 34.3039 141.318 33.0401 140.597C32.8595 140.417 32.4984 140.237 32.3179 140.056C28.5264 142.94 25.6376 145.824 24.9154 148.168ZM30.6929 136.091C31.9568 135.189 33.4012 134.468 34.4844 133.747C35.5677 133.026 36.4704 132.486 37.5537 131.765C33.5817 128.34 28.8875 125.636 24.1933 123.113C22.3878 124.915 20.5823 126.718 18.7769 128.52C23.11 131.224 27.6236 133.928 30.6929 136.091ZM18.4158 127.979C20.4018 126.177 22.2073 124.555 24.1933 122.932C22.9294 122.211 21.6656 121.49 20.4018 120.95C17.513 119.507 14.8048 117.885 11.9161 116.443C10.2912 115.542 7.94406 114.821 5.95804 113.92C5.05531 117.705 11.3744 123.113 18.4158 127.979Z" fill="#333333"/>
<path d="M232.725 12.0769C233.266 11.8967 233.989 11.7164 234.53 11.7164C236.516 11.7164 237.961 12.7979 238.683 14.6005C238.502 14.4202 238.502 14.24 238.322 13.8795C238.683 14.4202 238.863 14.7807 238.863 15.3215C239.044 16.0425 238.863 16.7635 238.683 17.4845C238.683 17.6648 238.502 17.6648 238.502 17.845C237.961 19.1068 236.336 20.008 235.072 20.1883C234.53 20.1883 233.808 20.1883 233.266 20.0081C231.461 19.6475 229.836 18.0253 229.836 16.2227C229.836 14.4202 230.919 12.6177 232.725 12.0769Z" fill="#333333"/>
<path d="M220.267 20.3685C220.628 20.3685 220.989 20.3685 221.17 20.5488C222.614 20.9093 223.517 21.9908 223.697 23.4328C223.878 24.6946 223.336 25.5958 222.614 26.6774C221.17 28.6601 217.739 28.2996 216.475 26.3169C216.475 26.1366 216.295 26.1366 216.295 25.9564C214.67 23.2526 217.017 20.008 220.267 20.3685Z" fill="#333333"/>
<path d="M207.99 27.0379C210.156 27.3984 211.781 29.2009 211.42 31.3639C211.24 32.2652 210.879 32.9862 210.337 33.527C208.531 35.3295 205.462 35.5098 204.018 33.1665C203.657 32.4455 203.476 31.9047 203.296 31.1837C202.935 28.4799 205.643 26.6774 207.99 27.0379Z" fill="#333333"/>
<path d="M193.546 34.6085C195.532 34.4282 196.796 36.0505 197.157 37.853C197.338 38.574 197.157 39.6555 196.976 40.3765C196.435 42.3593 194.81 43.6211 192.824 43.4408C191.018 43.2606 189.032 41.8186 189.213 39.6555C189.032 37.3122 190.657 34.7887 193.546 34.6085Z" fill="#333333"/>
<path d="M178.561 46.3249C179.825 45.4237 181.088 45.7842 182.172 46.5052C182.352 46.5052 182.533 46.5052 182.533 46.6854C183.435 47.0459 183.435 47.9472 183.074 48.4879C183.255 49.5695 182.713 50.651 181.811 51.372C180.366 52.2733 178.38 51.9128 177.477 50.4707C176.936 49.209 177.297 47.2262 178.561 46.3249Z" fill="#333333"/>
<path d="M94.2454 100.761C96.2314 100.04 98.759 101.122 99.3007 103.285C99.8423 105.448 98.9396 107.611 96.773 108.332C94.787 109.053 92.2594 107.971 91.7177 105.808C91.1761 103.645 92.0788 101.482 94.2454 100.761Z" fill="#333333"/>
<path d="M79.9822 117.525C78.8989 116.984 78.1768 115.722 78.5378 114.46C78.8989 112.838 80.1628 112.297 81.6071 112.297L81.7877 112.117C82.3293 111.396 83.5932 111.937 83.4126 112.838V113.018C84.1348 114.1 84.4959 115.181 83.7737 116.443C82.6904 117.705 81.2461 118.246 79.9822 117.525Z" fill="#333333"/>
<path d="M84.3153 134.288C84.3153 133.928 84.1348 133.567 84.1348 133.026C84.1348 132.846 84.3153 132.666 84.4959 132.666C85.218 132.486 86.1208 132.846 86.6624 133.387C87.5652 134.108 87.9262 135.009 88.1068 136.091C88.4679 138.434 84.4959 138.614 84.4959 136.271C84.4959 135.55 84.4959 135.009 84.3153 134.288Z" fill="#333333"/>
<path d="M89.9123 131.044C91.1761 131.224 92.801 132.486 92.0788 133.928C91.8983 134.469 91.1761 134.469 90.815 134.108C90.2734 133.748 90.0928 133.026 89.3706 132.846C88.4679 132.486 88.829 130.863 89.9123 131.044Z" fill="#333333"/>
<path d="M94.787 130.142C95.3286 130.142 95.6897 129.962 96.2314 129.782C96.5925 129.602 96.9536 129.962 96.773 130.323C96.4119 131.224 95.5092 131.404 94.6065 131.224C93.7037 131.224 94.0648 129.962 94.787 130.142Z" fill="#333333"/>
<path d="M169.714 95.5339C170.436 94.9931 171.158 95.5339 171.339 96.4351C171.339 96.6154 171.339 96.7956 171.339 96.9759C171.339 97.3364 170.978 97.6969 170.617 97.6969C170.256 97.6969 170.075 97.5166 169.894 97.5166C169.172 96.9759 169.172 95.8944 169.714 95.5339Z" fill="#333333"/>
<path d="M172.603 91.0275C172.964 91.0275 173.144 90.8473 173.505 90.8473C174.408 90.8473 174.228 92.2893 173.505 92.1091C173.144 91.9288 172.964 91.9288 172.603 91.7486C172.242 91.7486 172.242 91.2078 172.603 91.0275Z" fill="#333333"/>
<path d="M160.687 69.217C161.77 69.0367 162.853 69.7577 163.756 70.2985C164.298 70.659 164.117 71.5602 163.395 71.38C162.311 71.0195 161.048 70.659 160.506 69.7577C160.325 69.5775 160.506 69.217 160.687 69.217Z" fill="#333333"/>
<path d="M158.52 71.9209C159.242 71.7406 159.964 71.9209 160.687 72.1011C161.409 72.2814 161.228 73.3629 160.506 73.1826C159.784 73.0024 159.062 73.0024 158.52 72.4616C158.159 72.4616 158.159 71.9209 158.52 71.9209Z" fill="#333333"/>
<path d="M156.895 74.6246C155.812 74.2641 154.729 74.0838 153.826 73.7233C153.465 73.5431 153.645 73.0023 154.006 73.0023C154.909 73.1826 155.992 73.5431 156.895 73.9036C157.617 74.0838 157.437 74.8048 156.895 74.6246Z" fill="#333333"/>
<path d="M233.989 110.134C235.252 109.774 236.516 110.134 237.78 109.954C238.502 109.954 238.502 110.675 237.961 111.036C236.697 111.576 235.072 111.937 233.808 111.216C233.447 110.855 233.627 110.134 233.989 110.134Z" fill="#333333"/>
<path d="M231.461 112.838C231.822 112.658 232.183 112.658 232.725 112.658C233.266 112.658 233.447 113.559 232.725 113.559C232.364 113.559 232.003 113.559 231.461 113.379C231.1 113.379 231.1 112.838 231.461 112.838Z" fill="#333333"/>
<path d="M227.308 113.92C228.031 113.739 228.572 114.1 228.933 114.641C229.114 114.821 228.753 115.181 228.572 114.821C228.211 114.28 227.85 114.28 227.308 114.28C227.128 114.28 227.128 113.92 227.308 113.92Z" fill="#333333"/>
<path d="M256.918 34.248C256.737 34.969 256.557 35.3295 256.015 36.0505C255.835 36.2308 255.654 36.0505 255.654 35.8703C255.654 35.1493 255.654 34.6085 256.015 33.8875C256.196 33.3467 257.099 33.7072 256.918 34.248Z" fill="#333333"/>
<path d="M252.224 38.7543C252.404 38.7543 252.765 38.7543 252.946 38.7543C253.488 38.7543 253.307 39.6555 252.946 39.4753C252.765 39.4753 252.404 39.295 252.224 39.295C251.863 39.1148 251.863 38.7543 252.224 38.7543Z" fill="#333333"/>
<path d="M248.613 40.9174C248.974 40.7371 249.335 41.4581 248.793 41.6384C248.432 41.6384 248.252 41.0976 248.613 40.9174Z" fill="#333333"/>
<path d="M211.962 67.2342C212.684 67.054 213.406 67.4145 213.948 67.775C214.49 68.1355 213.948 68.8565 213.406 68.6762C212.865 68.3157 212.323 68.3157 211.781 68.1355C211.42 67.9552 211.42 67.2342 211.962 67.2342Z" fill="#333333"/>
<path d="M209.795 70.4788C210.517 70.659 211.24 71.0195 212.142 71.1998C212.684 71.38 212.323 72.2813 211.781 72.101C211.059 71.9208 210.156 71.5603 209.615 71.1998C209.073 71.1998 209.254 70.4788 209.795 70.4788Z" fill="#333333"/>
<path d="M207.629 72.2812C207.99 72.2812 208.351 72.2812 208.712 72.2812C209.073 72.2812 209.254 73.0023 208.712 73.0023C208.351 73.0023 207.99 73.0023 207.448 73.0023C207.087 72.822 207.268 72.2812 207.629 72.2812Z" fill="#333333"/>
<path d="M195.171 73.3628C195.171 74.4443 195.171 75.5258 194.99 76.4271C194.99 76.7876 194.449 76.7876 194.449 76.4271C194.268 75.3456 194.449 74.4443 194.449 73.3628C194.449 73.0023 195.171 73.0023 195.171 73.3628Z" fill="#333333"/>
<path d="M190.116 75.8863C189.755 75.3456 190.657 74.8048 190.838 75.3456C191.38 76.4271 191.741 77.3283 191.38 78.5901C191.38 78.7704 191.018 78.7704 190.838 78.5901C190.657 77.6889 190.477 76.7876 190.116 75.8863Z" fill="#333333"/>
<path d="M118.8 65.4317C118.439 65.7922 118.078 65.4317 118.258 65.0712C118.619 64.3502 118.98 63.8094 119.341 63.0884C119.702 62.5477 120.425 62.9082 120.064 63.4489C119.702 64.1699 119.341 64.7107 118.8 65.4317Z" fill="#333333"/>
<path d="M112.842 60.5649C112.481 60.7452 112.3 60.0242 112.661 60.0242C113.022 59.8439 113.383 60.5649 112.842 60.5649Z" fill="#333333"/>
<path d="M102.551 55.1573C102.37 54.6166 102.37 54.0758 102.189 53.3548C102.009 52.814 102.912 52.6338 102.912 53.1745C102.912 53.7153 102.912 54.4363 103.092 54.9771C102.912 55.3376 102.551 55.5178 102.551 55.1573Z" fill="#333333"/>
<path d="M125.299 116.804C125.299 117.344 125.119 117.885 124.938 118.426C124.758 118.786 124.216 118.786 124.216 118.426C124.216 117.885 124.397 117.344 124.397 116.804C124.577 116.083 125.299 116.263 125.299 116.804Z" fill="#333333"/>
<path d="M118.258 116.443C118.439 115.902 119.341 116.083 119.161 116.623C118.98 117.705 118.439 118.246 117.716 118.967C117.536 119.147 117.355 118.967 117.355 118.606C117.716 118.065 118.078 117.164 118.258 116.443Z" fill="#333333"/>
</g>
<defs>
<clipPath id="clip0_4_799">
<rect width="284" height="157" fill="white" transform="matrix(-1 0 0 1 284 0)"/>
</clipPath>
</defs>
</svg>
